<svg xmlns="http://www.w3.org/2000/svg" version="1.0" width="2048.000000pt" height="2048.000000pt" viewBox="0 0 2048.000000 2048.000000" preserveAspectRatio="xMidYMid meet">

<g transform="translate(0.000000,2048.000000) scale(0.100000,-0.100000)" fill="#7cbd1e" stroke="none">
<path d="M5211 18813 c-21 -38 -1144 -1982 -2494 -4320 l-2455 -4253 2492 -4317 2493 -4318 4993 0 4993 0 2492 4318 2493 4317 -2493 4318 -2492 4317 -4991 3 -4991 2 -40 -67z m12290 -4378 c1330 -2304 2419 -4192 2419 -4195 0 -3 -1089 -1890 -2419 -4195 l-2420 -4190 -4841 0 -4841 0 -2420 4190 c-1330 2305 -2417 4196 -2414 4204 4 11 4683 8119 4798 8314 l39 67 4840 -2 4839 -3 2420 -4190z" fill="#7cbd1e"/>
</g>
</svg>